Coordinates
version=1
nRows=65
nColumns=12
inDegrees=yes

Units are S.I. units (second, meters, Newtons, ...)
Angles are in degrees

endheader
time	SC_y	SC_z	SC_x	AC_y	AC_z	AC_x	GH_y	GH_z	GH_yy	EL_x	PS_y
       0.0              -57.43          39.69          9.883          62.09         -19.68          18.89         -176.6         -13.27          -46.5           15.1          49.14
  0.009218              -57.42          39.69          9.892          62.09         -19.68          18.88         -176.6         -13.27         -46.52          15.12          49.15
   0.01844              -57.41          39.68          9.902          62.08         -19.68          18.88         -176.6         -13.27         -46.53          15.14          49.16
   0.02765              -57.41          39.67          9.913          62.08         -19.67          18.88         -176.6         -13.27         -46.55          15.16          49.18
   0.03687               -57.4          39.67          9.924          62.07         -19.67          18.88         -176.6         -13.27         -46.57          15.18          49.19
   0.04609              -57.39          39.66          9.936          62.07         -19.66          18.87         -176.6         -13.27         -46.59           15.2          49.21
   0.05531              -57.39          39.65          9.949          62.06         -19.66          18.87         -176.6         -13.27         -46.62          15.22          49.23
   0.06453              -57.38          39.64          9.963          62.05         -19.65          18.87         -176.6         -13.27         -46.64          15.25          49.24
   0.07374              -57.37          39.63          9.978          62.05         -19.65          18.86         -176.6         -13.27         -46.67          15.28          49.26
   0.08296              -57.36          39.62          9.994          62.04         -19.64          18.86         -176.6         -13.27          -46.7          15.31          49.29
   0.09218              -57.35          39.61          10.01          62.03         -19.64          18.86         -176.6         -13.27         -46.73          15.34          49.31
    0.1014              -57.34           39.6          10.03          62.02         -19.63          18.85         -176.6         -13.27         -46.76          15.37          49.33
    0.1106              -57.33          39.58          10.05          62.01         -19.62          18.85         -176.6         -13.27         -46.79          15.41          49.36
    0.1198              -57.31          39.57          10.07           62.0         -19.61          18.84         -176.6         -13.27         -46.83          15.45          49.39
    0.1291               -57.3          39.55          10.09          61.99         -19.61          18.84         -176.6         -13.27         -46.87          15.49          49.42
    0.1383              -57.28          39.54          10.12          61.98          -19.6          18.83         -176.6         -13.27         -46.92          15.54          49.45
    0.1475              -57.27          39.52          10.15          61.97         -19.59          18.82         -176.6         -13.27         -46.97          15.59          49.49
    0.1567              -57.25           39.5          10.18          61.96         -19.58          18.82         -176.6         -13.27         -47.02          15.64          49.53
    0.1659              -57.23          39.48          10.21          61.94         -19.56          18.81         -176.6         -13.27         -47.08           15.7          49.57
    0.1751              -57.21          39.46          10.24          61.92         -19.55           18.8         -176.6         -13.27         -47.14          15.77          49.62
    0.1844              -57.18          39.43          10.28          61.91         -19.54          18.79         -176.6         -13.27         -47.21          15.84          49.67
    0.1936              -57.16           39.4          10.33          61.89         -19.52          18.78         -176.6         -13.27         -47.28          15.92          49.73
    0.2028              -57.13          39.37          10.37          61.86          -19.5          18.77         -176.6         -13.27         -47.37          16.01          49.79
     0.212               -57.1          39.34          10.43          61.84         -19.48          18.76         -176.6         -13.27         -47.46           16.1          49.86
    0.2212              -57.06           39.3          10.49          61.81         -19.46          18.74         -176.6         -13.27         -47.56          16.21          49.94
    0.2304              -57.02          39.25          10.55          61.78         -19.44          18.73         -176.6         -13.27         -47.68          16.33          50.03
    0.2397              -56.98          39.21          10.62          61.75         -19.41          18.71         -176.6         -13.27         -47.81          16.47          50.13
    0.2489              -56.93          39.15          10.71          61.71         -19.38          18.69         -176.6         -13.26         -47.95          16.62          50.24
    0.2581              -56.87          39.09           10.8          61.67         -19.35          18.67         -176.6         -13.26         -48.12          16.79          50.36
    0.2673              -56.81          39.02          10.91          61.62         -19.31          18.64         -176.6         -13.26         -48.31          16.99           50.5
    0.2765              -56.74          38.94          11.03          61.56         -19.26          18.61         -176.6         -13.26         -48.52          17.21          50.66
    0.2858              -56.65          38.85          11.16           61.5         -19.21          18.58         -176.6         -13.26         -48.76          17.46          50.85
     0.295              -56.56          38.75          11.32          61.42         -19.15          18.54         -176.6         -13.26         -49.05          17.76          51.06
    0.3042              -56.44          38.62          11.51          61.34         -19.09           18.5         -176.6         -13.26         -49.37           18.1          51.31
    0.3134              -56.31          38.48          11.73          61.24         -19.01          18.44         -176.6         -13.25         -49.76           18.5           51.6
    0.3226              -56.16          38.31          11.98          61.12         -18.91          18.38         -176.6         -13.25         -50.21          18.97          51.94
    0.3318              -55.98          38.11          12.29          60.98          -18.8          18.31         -176.6         -13.25         -50.75          19.53          52.34
    0.3411              -55.76          37.87          12.65          60.81         -18.67          18.22         -176.6         -13.24         -51.39           20.2          52.83
    0.3503              -55.49          37.58          13.09           60.6          -18.5          18.12         -176.6         -13.24         -52.17          21.02          53.42
    0.3595              -55.16          37.23          13.63          60.35         -18.31          17.99         -176.6         -13.23         -53.13          22.01          54.14
    0.3687              -54.76          36.79           14.3          60.04         -18.06          17.83         -176.6         -13.22          -54.3          23.24          55.02
    0.3779              -54.26          36.25          15.13          59.66         -17.76          17.63         -176.6         -13.21         -55.77          24.77          56.13
    0.3872              -53.63          35.56          16.17          59.17         -17.37          17.38         -176.6          -13.2         -57.61          26.69          57.52
    0.3964              -52.83          34.69           17.5          58.56         -16.88          17.06         -176.6         -13.19         -59.96          29.14           59.3
    0.4056               -51.8          33.57           19.2          57.77         -16.26          16.65         -176.6         -13.17         -62.97          32.28          61.56
    0.4148              -50.49          32.14          21.39          56.75         -15.46          16.13         -176.6         -13.14         -66.82           36.3          64.47
     0.424              -48.81           30.3          24.17          55.46         -14.43          15.46         -176.7         -13.11         -71.75          41.44          68.19
    0.4332              -46.69           28.0          27.68          53.83         -13.15          14.62         -176.7         -13.07         -77.94           47.9          72.86
    0.4425              -44.11          25.19          31.95          51.85         -11.58           13.6         -176.7         -13.02         -85.49          55.77          78.56
    0.4517              -41.13          21.94           36.9          49.55         -9.758          12.42         -176.7         -12.96         -94.24          64.89          85.16
    0.4609              -37.89          18.42          42.27          47.06         -7.789          11.13         -176.8          -12.9         -103.7          74.78          92.31
    0.4701              -34.66           14.9          47.63          44.57         -5.819          9.848         -176.8         -12.84         -113.2          84.66          99.46
    0.4793              -31.67          11.64          52.58          42.27           -4.0          8.662         -176.8         -12.79         -121.9          93.78          106.1
    0.4885              -29.09          8.835          56.85          40.29         -2.431          7.639         -176.9         -12.74         -129.5          101.7          111.8
    0.4978              -26.98          6.532          60.36          38.66         -1.143          6.799         -176.9          -12.7         -135.7          108.1          116.4
     0.507               -25.3            4.7          63.15          37.37        -0.1193          6.132         -176.9         -12.66         -140.6          113.3          120.1
    0.5162              -23.98          3.266          65.33          36.35         0.6824          5.609         -176.9         -12.64         -144.5          117.3          123.1
    0.5254              -22.95          2.148          67.03          35.56          1.307          5.202         -176.9         -12.62         -147.5          120.4          125.3
    0.5346              -22.15          1.275          68.36          34.95          1.795          4.884         -176.9          -12.6         -149.8          122.9          127.1
    0.5439              -21.52         0.5887          69.41          34.46          2.179          4.633         -176.9         -12.59         -151.7          124.8          128.5
    0.5531              -21.02        0.04348          70.24          34.08          2.484          4.435         -176.9         -12.58         -153.1          126.3          129.6
    0.5623              -20.62        -0.3937           70.9          33.77          2.729          4.275         -176.9         -12.58         -154.3          127.5          130.5
    0.5715              -20.29        -0.7479          71.44          33.52          2.927          4.146         -176.9         -12.57         -155.3          128.5          131.2
    0.5807              -20.03         -1.038          71.88          33.31          3.089           4.04         -176.9         -12.56         -156.0          129.3          131.8
    0.5899              -19.81         -1.278          72.25          33.14          3.223          3.953         -176.9         -12.56         -156.7          130.0          132.3
